# xmcd
#
# Track frame offsets:
#  150
#  17954
#  34721
#  55382
#  75145
#  97965
#  121165
#  141099
#  161554
#  180637
#
# Disc length: 2657 seconds
#
# Revision: 0
# Processed by: cddbd v1.4PL0 Copyright (c) Steve Scherf et al.
# Submitted via: AltoMP3_Maker 3.0
#
DISCID=730a5f0a
DTITLE=Anuar Zain - Keabadian Cinta
DYEAR=1900
DGENRE=
TTITLE0=Keabadian Cinta
TTITLE1=Permata
TTITLE2=Kembalilah Kasih
TTITLE3=Suria and Siarra
TTITLE4=Mungkin
TTITLE5=Pandangan Pertama
TTITLE6=Rindu Belaian
TTITLE7=Terpadaya
TTITLE8=Semua Untukmu
TTITLE9=Sesucinya Cintamu
EXTD=
EXTT0=
EXTT1=
EXTT2=
EXTT3=
EXTT4=
EXTT5=
EXTT6=
EXTT7=
EXTT8=
EXTT9=
PLAYORDER=
